<mxfile host="65bd71144e">
    <diagram id="c8YYX_IAD2BMLnDskf2C" name="Page-1">
        <mxGraphModel dx="752" dy="792" grid="1" gridSize="10" guides="1" tooltips="1" connect="1" arrows="1" fold="1" page="1" pageScale="1" pageWidth="827" pageHeight="1169" math="0" shadow="0">
            <root>
                <mxCell id="0"/>
                <mxCell id="1" parent="0"/>
                <mxCell id="9" style="edgeStyle=none;html=1;exitX=0.5;exitY=1;exitDx=0;exitDy=0;entryX=0.5;entryY=0;entryDx=0;entryDy=0;" edge="1" parent="1" source="4" target="8">
                    <mxGeometry relative="1" as="geometry"/>
                </mxCell>
                <mxCell id="4" value="patch" style="rounded=1;whiteSpace=wrap;html=1;" vertex="1" parent="1">
                    <mxGeometry x="300" y="120" width="120" height="60" as="geometry"/>
                </mxCell>
                <mxCell id="11" value="" style="edgeStyle=none;html=1;" edge="1" parent="1" source="8" target="10">
                    <mxGeometry relative="1" as="geometry"/>
                </mxCell>
                <mxCell id="18" value="" style="edgeStyle=none;html=1;" edge="1" parent="1" source="8" target="17">
                    <mxGeometry relative="1" as="geometry"/>
                </mxCell>
                <mxCell id="8" value="oldVnode节点是否存在" style="rhombus;whiteSpace=wrap;html=1;" vertex="1" parent="1">
                    <mxGeometry x="268" y="260" width="184" height="80" as="geometry"/>
                </mxCell>
                <mxCell id="10" value="使用vnode的创建节点，并插入到视图" style="whiteSpace=wrap;html=1;" vertex="1" parent="1">
                    <mxGeometry x="558" y="270" width="120" height="60" as="geometry"/>
                </mxCell>
                <mxCell id="12" value="不存在" style="text;html=1;align=center;verticalAlign=middle;resizable=0;points=[];autosize=1;strokeColor=none;fillColor=none;" vertex="1" parent="1">
                    <mxGeometry x="465" y="270" width="50" height="20" as="geometry"/>
                </mxCell>
                <mxCell id="21" value="" style="edgeStyle=none;html=1;" edge="1" parent="1" source="17" target="20">
                    <mxGeometry relative="1" as="geometry"/>
                </mxCell>
                <mxCell id="24" value="" style="edgeStyle=none;html=1;" edge="1" parent="1" source="17" target="23">
                    <mxGeometry relative="1" as="geometry"/>
                </mxCell>
                <mxCell id="17" value="oldvnode和vnode是否是同一节点" style="rhombus;whiteSpace=wrap;html=1;" vertex="1" parent="1">
                    <mxGeometry x="245" y="430" width="230" height="100" as="geometry"/>
                </mxCell>
                <mxCell id="19" value="存在" style="text;html=1;align=center;verticalAlign=middle;resizable=0;points=[];autosize=1;strokeColor=none;fillColor=none;" vertex="1" parent="1">
                    <mxGeometry x="354" y="370" width="40" height="20" as="geometry"/>
                </mxCell>
                <mxCell id="20" value="oldVnode和vnode进行更细致的比较，并更新到视图" style="whiteSpace=wrap;html=1;" vertex="1" parent="1">
                    <mxGeometry x="604" y="450" width="120" height="60" as="geometry"/>
                </mxCell>
                <mxCell id="22" value="是" style="text;html=1;align=center;verticalAlign=middle;resizable=0;points=[];autosize=1;strokeColor=none;fillColor=none;" vertex="1" parent="1">
                    <mxGeometry x="510" y="450" width="30" height="20" as="geometry"/>
                </mxCell>
                <mxCell id="27" value="" style="edgeStyle=none;html=1;" edge="1" parent="1" source="23" target="26">
                    <mxGeometry relative="1" as="geometry"/>
                </mxCell>
                <mxCell id="23" value="使用vnode创建节点并插入到oldVnode视图节点旁边" style="whiteSpace=wrap;html=1;" vertex="1" parent="1">
                    <mxGeometry x="273" y="630" width="174" height="90" as="geometry"/>
                </mxCell>
                <mxCell id="25" value="不是" style="text;html=1;align=center;verticalAlign=middle;resizable=0;points=[];autosize=1;strokeColor=none;fillColor=none;" vertex="1" parent="1">
                    <mxGeometry x="354" y="565" width="40" height="20" as="geometry"/>
                </mxCell>
                <mxCell id="26" value="将oldVnode节点，从视图中删除" style="whiteSpace=wrap;html=1;" vertex="1" parent="1">
                    <mxGeometry x="275" y="810" width="170" height="75" as="geometry"/>
                </mxCell>
            </root>
        </mxGraphModel>
    </diagram>
</mxfile>